# xmcd CD database file
#
# Track frame offsets:
#	150
#	17737
#	31869
#	49655
#	64585
#	78775
#	97980
#	114537
#	133482
#	148365
#	166940
#	186345
#	201047
#	216030
#	236407
#	252050
#
# Disc length: 3557 seconds
#
# Revision: 1
# Processed by: cddbd v1.4PL0 Copyright (c) Steve Scherf et al.
# Submitted via: CDex 1.50beta10
#
DISCID=da0de310
DTITLE=Kaz Lux - Echoes and Countrybutions
DYEAR=1998
DGENRE=Country
TTITLE0=No Time For Sentiments
TTITLE1=Dry Eyes In The Rain
TTITLE2=The Guilt Inside
TTITLE3=Toast
TTITLE4=She Still Comes Around
TTITLE5=Let's Clear The Air
TTITLE6=The Flood
TTITLE7=Highway Bird
TTITLE8=The Recycling Soul
TTITLE9=The Second Flood
TTITLE10=Marcha
TTITLE11=Krontjong E
TTITLE12=Granny
TTITLE13=Slowly It Goes
TTITLE14=Summernight Madness
TTITLE15=Walking the Dog
EXTD=YEAR: 1998
EXTT0=
EXTT1=
EXTT2=
EXTT3=
EXTT4=
EXTT5=
EXTT6=
EXTT7=
EXTT8=
EXTT9=
EXTT10=
EXTT11=
EXTT12=
EXTT13=
EXTT14=
EXTT15=
PLAYORDER=
